<?xml version="1.0" encoding="UTF-8" standalone="no"?>
<!-- Created with Inkscape (http://www.inkscape.org/) -->

<svg
   xmlns:dc="http://purl.org/dc/elements/1.1/"
   xmlns:cc="http://creativecommons.org/ns#"
   xmlns:rdf="http://www.w3.org/1999/02/22-rdf-syntax-ns#"
   xmlns:svg="http://www.w3.org/2000/svg"
   xmlns="http://www.w3.org/2000/svg"
   xmlns:sodipodi="http://sodipodi.sourceforge.net/DTD/sodipodi-0.dtd"
   xmlns:inkscape="http://www.inkscape.org/namespaces/inkscape"
   width="210mm"
   height="297mm"
   viewBox="0 0 744.09448819 1052.3622047"
   id="svg2"
   version="1.1"
   inkscape:version="0.91 r13725"
   sodipodi:docname="logo.svg">
  <defs
     id="defs4" />
  <sodipodi:namedview
     id="base"
     pagecolor="#ffffff"
     bordercolor="#666666"
     borderopacity="1.0"
     inkscape:pageopacity="0.0"
     inkscape:pageshadow="2"
     inkscape:zoom="0.6975"
     inkscape:cx="683.87096"
     inkscape:cy="375.95744"
     inkscape:document-units="px"
     inkscape:current-layer="layer1"
     showgrid="false"
     inkscape:snap-nodes="true"
     showguides="true"
     inkscape:guide-bbox="true"
     inkscape:snap-object-midpoints="true"
     inkscape:snap-center="true"
     inkscape:snap-page="true"
     inkscape:snap-to-guides="true"
     inkscape:snap-smooth-nodes="true"
     inkscape:object-nodes="true"
     inkscape:snap-intersection-paths="true"
     inkscape:object-paths="true"
     inkscape:window-width="1920"
     inkscape:window-height="1094"
     inkscape:window-x="1920"
     inkscape:window-y="0"
     inkscape:window-maximized="1">
    <sodipodi:guide
       position="0,0"
       orientation="0,1"
       id="guide4396"
       inkscape:label=""
       inkscape:color="rgb(0,0,255)" />
    <sodipodi:guide
       position="600,0"
       orientation="1,0"
       id="guide4398"
       inkscape:label=""
       inkscape:color="rgb(0,0,255)" />
    <sodipodi:guide
       position="0,600.00001"
       orientation="0,1"
       id="guide4400"
       inkscape:label=""
       inkscape:color="rgb(0,0,255)" />
  </sodipodi:namedview>
  <metadata
     id="metadata7">
    <rdf:RDF>
      <cc:Work
         rdf:about="">
        <dc:format>image/svg+xml</dc:format>
        <dc:type
           rdf:resource="http://purl.org/dc/dcmitype/StillImage" />
        <dc:title></dc:title>
      </cc:Work>
    </rdf:RDF>
  </metadata>
  <g
     inkscape:label="Layer 1"
     inkscape:groupmode="layer"
     id="layer1"
     style="display:inline">
    <path
       sodipodi:nodetypes="ccccc"
       inkscape:connector-curvature="0"
       id="path3389-5"
       d="m -8e-6,452.92687 299.999998,-0.56466 c 0,100 0,199.99999 0,299.99999 -100,0 -199.999999,0 -299.999998,0 0,-99.81178 0,-199.62355 0,-299.43533 z"
       style="fill:#0c6eb6"
       inkscape:export-xdpi="9"
       inkscape:export-ydpi="9" />
    <path
       sodipodi:nodetypes="ccccc"
       inkscape:connector-curvature="0"
       id="path3389-5-9"
       d="M 299.99999,452.92687 600,452.36221 c 0,100 0,199.99999 0,299.99999 -100.00001,0 -200.00001,0 -300.00001,0 0,-99.81178 0,-199.62355 0,-299.43533 z"
       style="fill:#39b421"
       inkscape:export-xdpi="9"
       inkscape:export-ydpi="9" />
    <path
       sodipodi:nodetypes="ccccc"
       inkscape:connector-curvature="0"
       id="path3389-5-2"
       d="M 299.99999,752.85075 600,752.28608 c 0,100 0,200 0,300.00002 -100.00001,0 -200.00001,0 -300.00001,0 0,-99.8118 0,-199.62357 0,-299.43535 z"
       style="fill:#ffb500;fill-opacity:1"
       inkscape:export-xdpi="9"
       inkscape:export-ydpi="9" />
    <path
       sodipodi:nodetypes="ccccc"
       inkscape:connector-curvature="0"
       id="path3389"
       d="M -1.3489057e-6,752.92687 299.99999,752.3622 c 0,100 0,200 0,300 -100,0 -199.999991,0 -299.9999913489057,0 0,-99.81178 0,-199.62355 0,-299.43533 z"
       style="fill:#c91111"
       inkscape:export-xdpi="9"
       inkscape:export-ydpi="9" />
    <path
       inkscape:connector-curvature="0"
       id="path3387"
       d="m 156.68541,646.05924 0,-41.85165 c 141.9296,-44.14935 141.9296,-43.83709 279.70226,0 l 0,41.85165 c -137.77266,46.38867 -137.77266,46.38867 -279.70226,0 z"
       style="fill:#36332c"
       sodipodi:nodetypes="ccccc"
       inkscape:export-xdpi="9"
       inkscape:export-ydpi="9" />
    <path
       inkscape:connector-curvature="0"
       id="path3387-9"
       d="m 436.80337,785.28368 0,60.24173 c -137.7883,29.46691 -137.77267,28.9346 -279.70227,0 l 0,-60.24173 c 141.9296,28.78417 142.3438,28.36856 279.70227,0 z"
       style="display:inline;fill:#36332c"
       sodipodi:nodetypes="ccccc"
       inkscape:export-xdpi="9"
       inkscape:export-ydpi="9" />
    <path
       inkscape:connector-curvature="0"
       id="path3387-7"
       d="m 436.38767,691.99585 0,60.24172 c -137.78829,29.46692 -137.77266,28.9346 -279.70226,0 l 0,-60.24172 c 141.9296,28.78417 142.3438,28.36855 279.70226,0 z"
       style="display:inline;fill:#36332c"
       sodipodi:nodetypes="ccccc"
       inkscape:export-xdpi="9"
       inkscape:export-ydpi="9" />
    <path
       inkscape:connector-curvature="0"
       id="path3387-9-0"
       d="m 436.58367,878.57151 0,60.24172 c -137.78829,29.46692 -137.77266,28.9346 -279.70227,0 l 0,-60.24172 c 141.92961,28.78417 142.34381,28.36855 279.70227,0 z"
       style="display:inline;fill:#36332c"
       sodipodi:nodetypes="ccccc"
       inkscape:export-xdpi="9"
       inkscape:export-ydpi="9" />
  </g>
</svg>
